<?xml version="1.0" encoding="utf-8"?>
<svg id="Layer_1" data-name="Layer 1" xmlns="http://www.w3.org/2000/svg" viewBox="0 0 800 800">
  <defs>
    <style>.cls-1{fill:#e9500e;}</style>
  </defs>
  <ellipse style="fill: rgb(233, 80, 14);" cx="400" cy="400" rx="400" ry="400"/>
  <ellipse style="fill: rgb(216, 216, 216); stroke: rgb(0, 0, 0); visibility: hidden;" cx="400" cy="400" rx="296.878" ry="296.878"/>
  <g transform="matrix(0.831997, 0, 0, 0.831997, 58.398159, 94.122009)" style="">
    <circle class="cls-1" cx="109.02696" cy="348.09412" r="109.02696" style="fill: rgb(255, 255, 255);"/>
    <circle class="cls-1" cx="563.08369" cy="109.02698" r="109.02698" style="fill: rgb(255, 255, 255);"/>
    <path class="cls-1" d="M 354.92 628.686 C 276.885 612.185 210.401 561.48 173.849 490.588 C 144.674 503.833 112.144 507.831 80.63 502.046 C 124.892 611.489 220.672 691.762 336.167 716.21 C 361.609 721.662 387.568 724.334 413.587 724.177 C 393.571 697.934 382.395 666.019 381.664 633.023 C 372.685 632.025 363.716 630.568 354.92 628.686 Z" style="fill: rgb(255, 255, 255);"/>
    <circle class="cls-1" cx="538.52046" cy="629.28723" r="109.02698" style="fill: rgb(255, 255, 255);"/>
    <path class="cls-1" d="M 690.236 589.241 C 786.11 468.293 793.323 299.404 708.111 170.722 C 695.518 200.375 674.115 225.441 646.802 242.525 C 691.181 326.308 687.856 427.33 638.065 508.014 C 663.588 528.908 681.85 557.34 690.236 589.241 Z" style="fill: rgb(255, 255, 255);"/>
    <path class="cls-1" d="M 100.615 191.739 C 103.382 191.587 106.15 191.512 108.92 191.514 C 138.132 191.535 166.762 199.687 191.603 215.059 C 240.362 144.631 320.063 102.005 405.711 100.55 C 407.473 68.395 419.013 37.546 438.787 12.129 C 301.684 1.272 168.463 72.021 100.615 191.739 Z" style="fill: rgb(255, 255, 255);"/>
  </g>
</svg>